<svg xmlns="http://www.w3.org/2000/svg" width="1480" height="709" viewBox="0 0 1480 709">
<g>
<path d="M 1339.00 706.69 L 1339.00 709.00 L 0.00 709.00 L 0.00 0.00 L 0.12 353.25 C0.19,545.69 0.60,701.04 1.04,701.04 C1.05,701.04 1.05,701.03 1.05,701.00 C2.09,693.98 11.60,615.73 13.03,602.50 C13.62,597.00 16.54,572.70 19.52,548.50 C22.49,524.30 26.08,494.60 27.49,482.50 C28.89,470.40 30.70,455.10 31.50,448.50 C37.28,400.56 47.99,311.56 53.52,265.50 C57.14,235.25 60.29,209.38 60.52,208.00 C60.74,206.62 62.30,193.35 63.99,178.50 C65.68,163.65 69.54,131.48 72.56,107.00 C77.33,68.48 85.00,2.99 85.00,0.75 C85.00,0.34 65.88,0.00 42.50,0.00 L 1422.12 0.00 L 1421.54 4.25 C1420.34,13.06 1412.32,80.91 1403.02,161.00 C1400.81,179.98 1397.01,212.38 1394.57,233.00 C1392.13,253.62 1388.54,284.23 1386.60,301.00 C1384.66,317.77 1380.61,352.42 1377.60,378.00 C1374.59,403.58 1370.53,438.23 1368.57,455.00 C1366.62,471.77 1363.03,502.15 1360.59,522.50 C1358.15,542.85 1355.86,562.42 1355.50,566.00 C1354.75,573.35 1343.99,664.11 1340.97,688.44 C1339.89,697.21 1339.00,705.42 1339.00,706.69 ZM 917.91 597.57 C918.14,597.81 944.35,598.00 976.15,598.00 L 1033.96 598.00 L 1034.45 595.75 C1034.97,593.30 1039.73,548.07 1045.98,486.00 C1048.17,464.27 1052.42,423.55 1055.42,395.50 C1058.43,367.45 1061.91,333.81 1063.15,320.75 C1064.38,307.69 1065.67,297.00 1066.01,297.00 C1066.34,297.00 1067.16,320.29 1067.82,348.75 C1070.84,478.34 1073.05,565.50 1073.60,576.75 L 1074.20 589.00 L 1100.04 589.00 C1114.82,589.00 1126.13,588.60 1126.45,588.07 C1126.77,587.56 1129.45,578.00 1132.42,566.82 C1135.38,555.65 1140.36,537.05 1143.49,525.50 C1154.21,485.95 1166.77,439.49 1174.98,409.00 C1179.50,392.23 1187.16,363.88 1192.00,346.00 C1196.84,328.12 1201.62,310.24 1202.62,306.25 C1203.62,302.26 1204.84,299.00 1205.33,299.00 C1205.82,299.00 1205.97,300.01 1205.66,301.25 C1205.35,302.49 1203.91,312.27 1202.46,323.00 C1201.00,333.73 1197.36,359.60 1194.37,380.50 C1191.37,401.40 1187.57,428.17 1185.92,440.00 C1184.27,451.83 1178.66,491.50 1173.46,528.16 C1168.26,564.82 1164.00,595.53 1164.00,596.41 C1164.00,597.85 1169.63,598.00 1221.94,598.00 C1256.06,598.00 1280.12,597.62 1280.45,597.08 C1280.76,596.58 1282.59,582.96 1284.52,566.83 C1286.45,550.70 1291.39,510.27 1295.51,477.00 C1314.33,324.84 1320.21,276.96 1321.54,265.02 C1322.32,257.95 1325.87,229.06 1329.42,200.83 C1332.97,172.60 1337.04,139.38 1338.46,127.00 C1339.87,114.62 1341.26,103.49 1341.54,102.25 L 1342.04 100.00 L 1197.08 100.00 L 1196.08 103.75 C1195.05,107.61 1189.72,129.39 1174.12,193.50 C1169.16,213.85 1160.60,248.95 1155.09,271.50 C1142.12,324.62 1134.18,357.27 1128.96,379.00 C1126.65,388.62 1124.38,397.17 1123.91,398.00 C1123.44,398.83 1123.05,332.31 1123.03,249.75 L 1123.00 100.00 L 1051.06 100.00 C1011.49,100.00 978.88,100.38 978.60,100.84 C978.31,101.30 977.59,105.91 977.00,111.09 C975.97,119.96 970.61,163.78 950.44,328.00 C917.43,596.74 917.39,597.06 917.91,597.57 ZM 625.00 595.92 L 625.00 598.16 L 708.75 597.70 C762.11,597.41 795.58,596.84 801.00,596.13 C824.05,593.09 842.28,588.22 857.50,581.03 C876.91,571.86 891.24,556.71 900.02,536.10 C907.33,518.93 908.50,512.41 917.90,436.50 C925.41,375.84 940.19,255.53 944.47,220.25 C947.87,192.20 948.53,179.45 947.11,168.89 C944.39,148.54 940.17,138.89 929.24,128.08 C917.58,116.54 903.91,110.19 880.65,105.54 C857.71,100.95 848.74,100.56 764.50,100.53 L 685.50 100.50 L 684.25 111.00 C683.56,116.78 679.42,150.52 675.05,186.00 C661.48,296.09 649.37,394.62 640.51,467.00 C635.83,505.23 630.43,549.37 628.50,565.09 C626.58,580.82 625.00,594.69 625.00,595.92 ZM 319.00 596.49 C319.00,597.84 325.67,597.99 377.25,597.76 L 435.50 597.50 L 436.19 591.00 C436.58,587.42 438.48,565.38 440.43,542.00 C450.52,420.74 455.50,366.96 456.51,368.34 C457.08,369.13 458.35,375.33 459.33,382.13 C460.31,388.93 464.21,413.85 468.01,437.50 C471.81,461.15 476.07,488.15 477.48,497.50 C481.48,523.94 493.00,595.36 493.49,596.75 C493.84,597.73 505.83,598.00 548.89,598.00 L 603.84 598.00 L 604.39 595.25 C604.69,593.74 607.23,573.60 610.02,550.50 C612.82,527.40 619.14,475.65 624.07,435.50 C629.00,395.35 636.87,331.23 641.57,293.00 C646.26,254.77 653.45,196.48 657.55,163.47 C661.65,130.45 665.00,102.65 665.00,101.70 C665.00,100.06 661.50,99.97 606.75,100.23 L 548.50 100.50 L 547.72 106.00 C546.98,111.16 533.75,230.69 525.32,308.25 C523.25,327.36 521.28,343.00 520.94,343.00 C520.30,343.00 517.58,322.93 513.45,287.50 C512.03,275.40 507.77,240.52 503.98,210.00 C500.18,179.48 495.70,142.80 494.02,128.50 C492.35,114.20 490.77,101.95 490.53,101.27 C490.18,100.32 477.71,100.10 434.80,100.27 L 379.51 100.50 L 376.75 123.50 C373.64,149.45 360.82,253.79 348.98,349.50 C344.62,384.70 340.36,419.58 339.51,427.00 C338.66,434.42 334.83,465.48 331.01,496.00 C323.90,552.74 319.00,593.78 319.00,596.49 ZM 88.72 597.26 C88.95,597.67 115.54,597.90 147.81,597.76 L 206.50 597.50 L 213.20 543.50 C216.88,513.80 222.06,471.73 224.71,450.00 C229.22,413.03 229.66,410.49 231.52,410.40 C232.61,410.34 253.58,410.23 278.12,410.15 L 322.74 410.00 L 323.42 402.75 C324.14,395.08 332.55,327.13 333.57,320.75 L 334.18 317.00 L 288.15 317.00 C262.83,317.00 241.91,316.66 241.65,316.23 C241.39,315.81 243.15,299.73 245.57,280.48 C249.61,248.39 256.00,195.68 256.00,194.50 C256.00,194.22 278.50,194.00 306.00,194.00 C333.50,194.00 356.00,193.66 356.00,193.25 C356.01,191.67 358.24,173.15 362.64,138.12 C366.42,108.04 366.98,101.60 365.86,100.89 C365.11,100.41 316.12,100.13 257.00,100.26 L 149.50 100.50 L 145.32 133.50 C143.02,151.65 139.28,181.80 137.01,200.50 C134.74,219.20 129.12,265.10 124.51,302.50 C119.91,339.90 112.04,404.02 107.03,445.00 C102.02,485.98 95.75,536.83 93.12,558.00 C90.48,579.17 88.50,596.84 88.72,597.26 ZM 785.74 501.71 C783.23,503.06 779.42,503.54 768.87,503.82 C761.37,504.02 755.02,503.81 754.77,503.34 C754.51,502.88 757.80,474.38 762.09,440.00 C773.22,350.66 786.83,240.04 788.00,229.50 C788.55,224.55 789.67,215.12 790.50,208.54 C791.32,201.96 792.00,195.94 792.00,195.16 C792.00,193.98 794.32,193.83 805.75,194.24 C820.79,194.78 824.04,195.60 826.60,199.51 C826.69,199.65 826.78,199.79 826.87,199.92 C828.48,202.51 828.00,206.39 814.18,317.77 L 813.47 323.50 C809.38,356.50 804.46,396.77 802.53,413.00 C795.34,473.72 792.37,494.78 790.65,497.42 C789.73,498.81 787.52,500.75 785.74,501.71 ZM 1480.00 0.00 L 1480.00 709.00 L 1479.96 33.50 L 1477.92 38.00 C1470.65,54.06 1450.90,57.88 1438.16,45.69 C1432.82,40.58 1430.64,35.46 1430.64,28.00 C1430.64,20.53 1432.84,15.37 1438.16,10.36 C1443.43,5.40 1447.64,3.74 1454.95,3.72 C1465.66,3.68 1473.40,8.37 1477.63,17.46 L 1479.98 22.50 L 1480.00 0.00 ZM 1450.50 50.11 C1458.40,52.14 1468.54,48.06 1473.52,40.84 C1478.53,33.57 1479.04,25.11 1474.97,17.00 C1472.73,12.55 1470.57,10.61 1464.98,8.08 C1450.55,1.53 1434.34,11.13 1433.20,26.91 C1432.42,37.75 1439.52,47.28 1450.50,50.11 ZM 1447.80 36.93 C1447.00,41.59 1445.52,44.07 1444.81,41.94 C1444.58,41.25 1445.30,34.47 1446.40,26.85 L 1448.41 13.00 L 1454.70 13.00 C1459.67,13.00 1461.42,13.42 1463.00,15.00 C1466.51,18.51 1465.36,26.44 1460.81,30.06 C1458.88,31.60 1458.88,31.66 1460.83,36.81 C1461.92,39.66 1462.45,42.22 1462.02,42.49 C1460.87,43.20 1459.19,40.86 1457.65,36.39 C1456.39,32.77 1456.03,32.50 1452.43,32.50 C1448.63,32.50 1448.54,32.58 1447.80,36.93 ZM 1449.68 28.35 C1450.04,28.71 1452.06,29.00 1454.17,29.00 C1459.02,29.00 1462.00,26.23 1462.00,21.70 C1462.00,17.32 1460.46,16.00 1455.35,16.00 C1451.20,16.00 1451.07,16.10 1450.49,19.75 C1450.16,21.81 1449.69,24.45 1449.46,25.60 C1449.23,26.76 1449.33,27.99 1449.68,28.35 Z" fill="rgb(0,0,0)"/>
<path d="M 0.59 645.75 C0.73,680.16 0.89,700.03 1.06,700.03 C1.06,700.03 1.06,700.02 1.07,700.00 C1.38,698.35 2.82,687.18 4.61,672.78 C2.85,687.09 1.42,698.51 1.05,701.00 C1.05,701.03 1.05,701.04 1.04,701.04 C0.88,701.04 0.73,680.75 0.59,645.75 Z" fill="rgb(78,78,78)"/>
<path d="M 450.73 421.68 C453.24,392.58 455.18,369.01 455.23,366.72 C455.41,358.83 456.55,362.63 458.89,379.00 C460.12,387.52 464.22,413.85 468.02,437.50 C471.81,461.15 476.07,488.15 477.48,497.50 C476.07,488.15 471.81,461.15 468.01,437.50 C464.21,413.85 460.31,388.93 459.33,382.13 C458.35,375.33 457.08,369.13 456.51,368.34 C455.94,367.56 454.08,384.58 450.73,421.68 ZM 0.75 677.47 C0.86,691.21 0.97,698.52 1.09,698.52 C1.10,698.52 1.10,698.51 1.10,698.50 C1.37,697.62 2.46,689.64 3.91,678.37 C2.45,690.00 1.34,698.57 1.07,700.00 C1.06,700.02 1.06,700.03 1.06,700.03 C0.95,700.03 0.85,692.06 0.75,677.47 ZM 440.43 542.00 C439.02,558.86 437.64,575.03 436.84,584.07 C437.65,574.95 439.04,558.59 440.46,541.50 C440.82,537.16 441.26,532.00 441.74,526.26 C441.31,531.38 440.87,536.62 440.43,542.00 Z" fill="rgb(166,166,166)"/>
<path d="M 1339.00 706.69 C1339.00,705.42 1339.89,697.21 1340.97,688.44 C1343.99,664.11 1354.75,573.35 1355.50,566.00 C1355.86,562.42 1358.15,542.85 1360.59,522.50 C1363.03,502.15 1366.62,471.77 1368.57,455.00 C1370.53,438.23 1374.59,403.58 1377.60,378.00 C1380.61,352.42 1384.66,317.77 1386.60,301.00 C1388.54,284.23 1392.13,253.62 1394.57,233.00 C1397.01,212.38 1400.81,179.98 1403.02,161.00 C1412.32,80.91 1420.34,13.06 1421.54,4.25 L 1422.12 0.00 L 1451.06 0.00 L 1480.00 0.00 L 1479.99 11.25 L 1479.98 22.50 L 1477.63 17.46 C1473.40,8.37 1465.66,3.68 1454.95,3.72 C1447.64,3.74 1443.43,5.40 1438.16,10.36 C1432.84,15.37 1430.64,20.53 1430.64,28.00 C1430.64,35.46 1432.82,40.58 1438.16,45.69 C1450.90,57.88 1470.65,54.06 1477.92,38.00 L 1479.96 33.50 L 1479.98 371.25 L 1480.00 709.00 L 1409.50 709.00 L 1339.00 709.00 L 1339.00 706.69 ZM 0.10 350.75 L 0.00 0.00 L 42.50 0.00 C65.88,0.00 85.00,0.34 85.00,0.75 C85.00,2.99 77.33,68.48 72.56,107.00 C69.54,131.48 65.68,163.65 63.99,178.50 C62.30,193.35 60.74,206.62 60.52,208.00 C60.29,209.38 57.14,235.25 53.52,265.50 C47.99,311.56 37.28,400.56 31.50,448.50 C30.70,455.10 28.89,470.40 27.49,482.50 C26.08,494.60 22.49,524.30 19.52,548.50 C16.54,572.70 13.62,597.00 13.03,602.50 C10.01,630.52 1.89,695.88 1.10,698.50 C0.57,700.29 0.16,559.86 0.10,350.75 ZM 88.72 597.26 C88.50,596.84 90.48,579.17 93.12,558.00 C95.75,536.83 102.02,485.98 107.03,445.00 C112.04,404.02 119.91,339.90 124.51,302.50 C129.12,265.10 134.74,219.20 137.01,200.50 C139.28,181.80 143.02,151.65 145.32,133.50 L 149.50 100.50 L 257.00 100.26 C316.12,100.13 365.11,100.41 365.86,100.89 C366.98,101.60 366.42,108.04 362.64,138.12 C358.24,173.15 356.01,191.67 356.00,193.25 C356.00,193.66 333.50,194.00 306.00,194.00 C278.50,194.00 256.00,194.22 256.00,194.50 C256.00,195.68 249.61,248.39 245.57,280.48 C243.15,299.73 241.39,315.81 241.65,316.23 C241.91,316.66 262.83,317.00 288.15,317.00 L 334.18 317.00 L 333.57 320.75 C332.55,327.13 324.14,395.08 323.42,402.75 L 322.74 410.00 L 278.12 410.15 C253.58,410.23 232.61,410.34 231.52,410.40 C229.66,410.49 229.22,413.03 224.71,450.00 C222.06,471.73 216.88,513.80 213.20,543.50 L 206.50 597.50 L 147.81 597.76 C115.54,597.90 88.95,597.67 88.72,597.26 ZM 319.00 596.49 C319.00,593.78 323.90,552.74 331.01,496.00 C334.83,465.48 338.66,434.42 339.51,427.00 C340.36,419.58 344.62,384.70 348.98,349.50 C360.82,253.79 373.64,149.45 376.75,123.50 L 379.51 100.50 L 434.80 100.27 C477.71,100.10 490.18,100.32 490.53,101.27 C490.77,101.95 492.35,114.20 494.02,128.50 C495.70,142.80 500.18,179.48 503.98,210.00 C507.77,240.52 512.03,275.40 513.45,287.50 C517.58,322.93 520.30,343.00 520.94,343.00 C521.28,343.00 523.25,327.36 525.32,308.25 C533.75,230.69 546.98,111.16 547.72,106.00 L 548.50 100.50 L 606.75 100.23 C661.50,99.97 665.00,100.06 665.00,101.70 C665.00,102.65 661.65,130.45 657.55,163.47 C653.45,196.48 646.26,254.77 641.57,293.00 C636.87,331.23 629.00,395.35 624.07,435.50 C619.14,475.65 612.82,527.40 610.02,550.50 C607.23,573.60 604.69,593.74 604.39,595.25 L 603.84 598.00 L 548.89 598.00 C505.83,598.00 493.84,597.73 493.49,596.75 C493.00,595.36 481.48,523.94 477.48,497.50 C476.07,488.15 471.81,461.15 468.02,437.50 C464.22,413.85 460.12,387.52 458.89,379.00 C456.55,362.63 455.41,358.83 455.23,366.72 C455.17,369.35 452.63,400.08 449.58,435.00 C446.53,469.92 442.43,517.85 440.46,541.50 C438.50,565.15 436.58,587.42 436.20,591.00 L 435.50 597.50 L 377.25 597.76 C325.67,597.99 319.00,597.84 319.00,596.49 ZM 625.00 595.92 C625.00,594.69 626.58,580.82 628.50,565.09 C630.43,549.37 635.83,505.23 640.51,467.00 C649.37,394.62 661.48,296.09 675.05,186.00 C679.42,150.52 683.56,116.78 684.25,111.00 L 685.50 100.50 L 764.50 100.53 C848.74,100.56 857.71,100.95 880.65,105.54 C903.91,110.19 917.58,116.54 929.24,128.08 C940.17,138.89 944.39,148.54 947.11,168.89 C948.53,179.45 947.87,192.20 944.47,220.25 C940.19,255.53 925.41,375.84 917.90,436.50 C908.50,512.41 907.33,518.93 900.02,536.10 C891.24,556.71 876.91,571.86 857.50,581.03 C842.28,588.22 824.05,593.09 801.00,596.13 C795.58,596.84 762.11,597.41 708.75,597.70 L 625.00 598.16 L 625.00 595.92 ZM 785.74 501.71 C787.52,500.75 789.73,498.81 790.65,497.42 C792.37,494.78 795.34,473.72 802.53,413.00 C804.46,396.77 809.38,356.50 813.47,323.50 C828.73,200.42 828.52,202.44 826.60,199.51 C824.04,195.60 820.79,194.78 805.75,194.24 C794.32,193.83 792.00,193.98 792.00,195.16 C792.00,195.94 791.32,201.96 790.50,208.54 C789.67,215.12 788.55,224.55 788.00,229.50 C786.83,240.04 773.22,350.66 762.09,440.00 C757.80,474.38 754.51,502.88 754.77,503.34 C755.02,503.81 761.37,504.02 768.87,503.82 C779.42,503.54 783.23,503.06 785.74,501.71 ZM 917.91 597.57 C917.39,597.06 917.43,596.74 950.44,328.00 C970.61,163.78 975.97,119.96 977.00,111.09 C977.59,105.91 978.31,101.30 978.60,100.84 C978.88,100.38 1011.49,100.00 1051.06,100.00 L 1123.00 100.00 L 1123.03 249.75 C1123.05,332.31 1123.44,398.83 1123.91,398.00 C1124.38,397.17 1126.65,388.62 1128.96,379.00 C1134.18,357.27 1142.12,324.62 1155.09,271.50 C1160.60,248.95 1169.16,213.85 1174.12,193.50 C1189.72,129.39 1195.05,107.61 1196.08,103.75 L 1197.08 100.00 L 1269.56 100.00 L 1342.04 100.00 L 1341.54 102.25 C1341.26,103.49 1339.87,114.62 1338.46,127.00 C1337.04,139.38 1332.97,172.60 1329.42,200.83 C1325.87,229.06 1322.32,257.95 1321.54,265.02 C1320.21,276.96 1314.33,324.84 1295.51,477.00 C1291.39,510.27 1286.45,550.70 1284.52,566.83 C1282.59,582.96 1280.76,596.58 1280.45,597.08 C1280.12,597.62 1256.06,598.00 1221.94,598.00 C1169.63,598.00 1164.00,597.85 1164.00,596.41 C1164.00,595.53 1168.26,564.82 1173.46,528.16 C1178.66,491.50 1184.27,451.83 1185.92,440.00 C1187.57,428.17 1191.37,401.40 1194.37,380.50 C1197.36,359.60 1201.00,333.73 1202.46,323.00 C1203.91,312.27 1205.35,302.49 1205.66,301.25 C1205.97,300.01 1205.82,299.00 1205.33,299.00 C1204.84,299.00 1203.62,302.26 1202.62,306.25 C1201.62,310.24 1196.84,328.12 1192.00,346.00 C1187.16,363.88 1179.50,392.23 1174.98,409.00 C1166.77,439.49 1154.21,485.95 1143.49,525.50 C1140.36,537.05 1135.38,555.65 1132.42,566.82 C1129.45,578.00 1126.77,587.56 1126.45,588.07 C1126.13,588.60 1114.82,589.00 1100.04,589.00 L 1074.20 589.00 L 1073.60 576.75 C1073.05,565.50 1070.84,478.34 1067.82,348.75 C1067.16,320.29 1066.34,297.00 1066.01,297.00 C1065.67,297.00 1064.38,307.69 1063.15,320.75 C1061.91,333.81 1058.43,367.45 1055.42,395.50 C1052.42,423.55 1048.17,464.27 1045.98,486.00 C1039.73,548.07 1034.97,593.30 1034.45,595.75 L 1033.96 598.00 L 976.15 598.00 C944.35,598.00 918.14,597.81 917.91,597.57 ZM 1450.50 50.11 C1439.52,47.28 1432.42,37.75 1433.20,26.91 C1434.34,11.13 1450.55,1.53 1464.98,8.08 C1470.57,10.61 1472.73,12.55 1474.97,17.00 C1479.04,25.11 1478.53,33.57 1473.52,40.84 C1468.54,48.06 1458.40,52.14 1450.50,50.11 ZM 1447.80 36.93 C1448.54,32.58 1448.63,32.50 1452.43,32.50 C1456.03,32.50 1456.39,32.77 1457.65,36.39 C1459.19,40.86 1460.87,43.20 1462.02,42.49 C1462.45,42.22 1461.92,39.66 1460.83,36.81 C1458.88,31.66 1458.88,31.60 1460.81,30.06 C1465.36,26.44 1466.51,18.51 1463.00,15.00 C1461.42,13.42 1459.67,13.00 1454.70,13.00 L 1448.41 13.00 L 1446.40 26.85 C1445.30,34.47 1444.58,41.25 1444.81,41.94 C1445.52,44.07 1447.00,41.59 1447.80,36.93 ZM 1449.68 28.35 C1449.33,27.99 1449.23,26.76 1449.46,25.60 C1449.69,24.45 1450.16,21.81 1450.49,19.75 C1451.07,16.10 1451.20,16.00 1455.35,16.00 C1460.46,16.00 1462.00,17.32 1462.00,21.70 C1462.00,26.23 1459.02,29.00 1454.17,29.00 C1452.06,29.00 1450.04,28.71 1449.68,28.35 Z" fill="rgb(254,254,254)"/>
</g>
</svg>